<svg width="38" height="31" viewBox="0 0 38 31" fill="none" xmlns="http://www.w3.org/2000/svg">
<path d="M9.14188 30.6001C7.38188 30.6001 5.94188 30.2401 4.82188 29.5201C3.70188 28.8001 2.78188 27.8801 2.06188 26.7601C1.18188 25.4801 0.621881 24.0801 0.381881 22.5601C0.141881 21.0401 0.0218811 19.8001 0.0218811 18.8401C0.0218811 14.9201 1.02188 11.3601 3.02188 8.16011C5.02188 4.96011 8.14188 2.36011 12.3819 0.360107L13.4619 2.52011C10.9819 3.56011 8.82188 5.20011 6.98188 7.44011C5.22188 9.68011 4.34188 11.9601 4.34188 14.2801C4.34188 15.2401 4.46188 16.0801 4.70188 16.8001C5.98188 15.7601 7.46188 15.2401 9.14188 15.2401C11.2219 15.2401 13.0219 15.9201 14.5419 17.2801C16.0619 18.6401 16.8219 20.5201 16.8219 22.9201C16.8219 25.1601 16.0619 27.0001 14.5419 28.4401C13.0219 29.8801 11.2219 30.6001 9.14188 30.6001ZM29.5419 30.6001C27.7819 30.6001 26.3419 30.2401 25.2219 29.5201C24.1019 28.8001 23.1819 27.8801 22.4619 26.7601C21.5819 25.4801 21.0219 24.0801 20.7819 22.5601C20.5419 21.0401 20.4219 19.8001 20.4219 18.8401C20.4219 14.9201 21.4219 11.3601 23.4219 8.16011C25.4219 4.96011 28.5419 2.36011 32.7819 0.360107L33.8619 2.52011C31.3819 3.56011 29.2219 5.20011 27.3819 7.44011C25.6219 9.68011 24.7419 11.9601 24.7419 14.2801C24.7419 15.2401 24.8619 16.0801 25.1019 16.8001C26.3819 15.7601 27.8619 15.2401 29.5419 15.2401C31.6219 15.2401 33.4219 15.9201 34.9419 17.2801C36.4619 18.6401 37.2219 20.5201 37.2219 22.9201C37.2219 25.1601 36.4619 27.0001 34.9419 28.4401C33.4219 29.8801 31.6219 30.6001 29.5419 30.6001Z" fill="#473C38"/>
</svg>
